<?xml version="1.0" encoding="utf-8"?>
<!-- Generator: Adobe Illustrator 26.5.0, SVG Export Plug-In . SVG Version: 6.00 Build 0)  -->
<svg version="1.1" id="Layer_1" xmlns="http://www.w3.org/2000/svg" xmlns:xlink="http://www.w3.org/1999/xlink" x="0px" y="0px"
	 viewBox="0 0 399.4 271.4" style="enable-background:new 0 0 399.4 271.4;" xml:space="preserve">
<style type="text/css">
	.st0{fill:#FFFFFF;}
</style>
<path class="st0" d="M399.5,248.3L399.4,23c0-12.7-10.3-23-23-23H23C10.3,0,0,10.3,0,23v225.3c0,3.5,0.9,6.9,2.3,9.9l-0.1,0.1
	l0.2,0.2c2.2,4.5,5.9,8.2,10.5,10.5l0.2,0.2l0.1-0.1c3,1.4,6.3,2.3,9.9,2.3h353.3c3.5,0,6.9-0.9,9.9-2.3l0.1,0.1l0.2-0.2
	c4.5-2.2,8.2-5.9,10.5-10.5l0.2-0.2l-0.1-0.1C398.6,255.2,399.5,251.9,399.5,248.3z M338.5,27.1L231.3,134.4
	c-17.4,17.4-45.8,17.4-63.3,0L60.8,27.1H338.5z M32.8,46.6c0-0.8,0.2-1.5,0.4-2.2l88.1,88.1L32.8,221V46.6z M51.9,243.5l96-96
	l10.1,10.1c11.5,11.5,26.5,17.2,41.6,17.2c15.1,0,30.2-5.7,41.6-17.2l10.1-10.1l96,96H51.9z M366.6,221l-88.5-88.5l88.1-88.1
	c0.2,0.7,0.4,1.4,0.4,2.2V221z"/>
</svg>
