<?xml version="1.0" encoding="utf-8"?>
<!-- Generator: Adobe Illustrator 26.5.0, SVG Export Plug-In . SVG Version: 6.00 Build 0)  -->
<svg version="1.1" id="Layer_1" xmlns="http://www.w3.org/2000/svg" xmlns:xlink="http://www.w3.org/1999/xlink" x="0px" y="0px"
	 viewBox="0 0 168.7 190" style="enable-background:new 0 0 168.7 190;" xml:space="preserve">
<style type="text/css">
	.st0{fill:#2B5087;}
	.st1{fill:#2B5087;stroke:#0074FF;stroke-width:0.4018;stroke-miterlimit:10;}
	.st2{fill:#FDE800;}
</style>
<path class="st0" d="M82.7,182.8c0,0,11.4,2.7,22.9,0c0,0-2.4,7.2-11.4,7.2S82.7,182.8,82.7,182.8L82.7,182.8L82.7,182.8z"/>
<path class="st1" d="M121.2,139.2c-6.4,5.3-14.3,9.1-22.8,10.9c-2.1,0.4-4.3,0.8-6.4,1c-2.2,0.2-4.3,0.3-6.5,0.3
	c-2.2,0-4.4-0.2-6.6-0.4c-2.2-0.3-4.4-0.7-6.5-1.2c-4.3-1-8.5-2.6-12.5-4.6c-1-0.5-2-1-3-1.6l-1.4-0.8l-0.7-0.4l-0.7-0.5
	c-0.9-0.6-1.9-1.2-2.8-1.9c-0.9-0.7-1.8-1.3-2.7-2.1c-3.5-2.9-6.7-6.1-9.6-9.8s-5.3-7.6-7.2-11.8c-2-4.2-3.5-8.6-4.5-13.2
	s-1.4-9.3-1.4-14v-0.9l0-0.9l0.1-1.8c0.1-1.2,0.2-2.4,0.4-3.5l0.3-1.8c0.1-0.6,0.2-1.2,0.3-1.8c0.2-1.2,0.5-2.3,0.8-3.5
	c1.2-4.6,2.9-9.1,5.1-13.3c2.2-4.2,4.9-8.2,8.1-11.8s6.7-6.9,10.7-9.6c7.9-5.5,17-9.2,26.5-10.4c6.4-0.9,12.3,3.6,13.1,10
	c0.8,5.9-3.1,11.5-8.8,12.9L82,52.8l-1.1,0.3c-0.4,0.1-0.7,0.2-1.1,0.3c-0.7,0.2-1.4,0.4-2.2,0.6l-1.1,0.3c-0.4,0.1-0.7,0.2-1,0.4
	c-0.4,0.1-0.7,0.2-1,0.4l-1,0.4c-0.7,0.3-1.4,0.6-2,0.9c-0.4,0.2-0.7,0.3-1,0.5l-1,0.5c-0.6,0.4-1.3,0.8-1.9,1.2
	c-0.3,0.2-0.6,0.4-0.9,0.6L66,59.6c-0.2,0.1-0.3,0.2-0.4,0.3c-2.4,1.7-4.7,3.7-6.7,5.9c-2,2.2-3.9,4.6-5.3,7.2
	c-3,5.2-4.9,11-5.5,17.1c-0.6,6.1,0.2,12.4,2.3,18.4c2,6,5.5,11.5,10,16.2c0.3,0.3,0.6,0.6,0.8,0.9l0.9,0.8c0.6,0.6,1.2,1.1,1.8,1.6
	l0.5,0.4l0.5,0.4l1,0.8c0.7,0.5,1.3,1,2,1.4c2.7,1.9,5.7,3.4,8.8,4.7c3.1,1.2,6.4,2.2,9.8,2.8c1.7,0.3,3.4,0.5,5.1,0.6
	c1.7,0.1,3.5,0.1,5.2,0c1.7-0.1,3.5-0.3,5.2-0.5c1.7-0.3,3.5-0.6,5.2-1.1c1.7-0.5,3.4-1,5.1-1.6c1.7-0.6,3.3-1.4,5-2.2l0.1,0
	c1.7-0.8,3.8-0.2,4.6,1.6C122.9,136.5,122.4,138.2,121.2,139.2L121.2,139.2L121.2,139.2z"/>
<path class="st0" d="M132.1,148c1.8-1.8,2.1-7.8-0.3-6.4c-0.4,0.3-0.8,0.6-1.2,0.8c-34.4,21-59.1,12.7-65.8,11.9
	c-1.6-0.2-3.2,0.2-4.5,1.1c-1.9,1.4-2.9,3.8,4.3,7.2c11.8,5.5,23.6,11.1,38.4,9.2l0.8-0.1c1.6-0.2,3,0.2,3.2,1.1
	c0.1,0.6-0.5,1.4-1.6,1.8c-1.9,0.5-6.1,1-13.8,0.5c-18.4-1.5-24.7,0.4-21.1,1.8c3.7,1.5,17.4,5.2,39.1,2.6
	c15.1-1.8,16-7.2,15.1-10.2v0c-0.4-1.3-1.6-2.2-3.1-2.2h-0.9c-4.7,0-14.3-0.2-22.1-1c-8.5-1.2-8.9-3.1-8.2-4.2c0.4-0.6,1-0.9,1.6-1
	c1.4-0.2,4.7-0.6,6.5-0.9l0,0c1.9-0.3,3.8-0.7,5.4-1.1C109.7,157.3,125.1,153.8,132.1,148L132.1,148L132.1,148z"/>
<path class="st0" d="M27.1,52.1c-1.2,0-2.5-0.4-3.7-1.1L16,46.3c-3.2-2-4.1-6.3-2.1-9.5c2-3.2,6.3-4.1,9.5-2.1l7.4,4.7
	c3.2,2,4.1,6.3,2.1,9.5C31.6,51,29.4,52.1,27.1,52.1L27.1,52.1L27.1,52.1z"/>
<path class="st0" d="M105.6,27.7c-0.4,0-0.8,0-1.2-0.1c-3.7-0.7-6.2-4.3-5.5-8l2.5-13.9c0.7-3.7,4.3-6.2,8-5.5
	c3.7,0.7,6.2,4.3,5.5,8L112.4,22C111.8,25.3,108.9,27.7,105.6,27.7L105.6,27.7L105.6,27.7z"/>
<path class="st0" d="M6.9,127.6c-2.9,0-5.5-1.8-6.5-4.6c-1.2-3.6,0.6-7.5,4.3-8.8l10.2-3.5c3.6-1.2,7.5,0.6,8.8,4.3
	c1.2,3.6-0.6,7.5-4.3,8.8l-10.2,3.5C8.5,127.4,7.7,127.6,6.9,127.6L6.9,127.6L6.9,127.6z"/>
<g>
	<path class="st2" d="M135.1,124.6c-1.2,0-2.4-0.3-3.5-0.9c-3.3-1.9-4.4-6.1-2.5-9.4c12.5-21.5,4.7-49.4-17.2-62
		c-3.3-1.9-4.4-6.1-2.5-9.4c1.9-3.3,6.1-4.4,9.4-2.5c28.5,16.5,38.5,52.8,22.3,80.9C139.8,123.4,137.4,124.6,135.1,124.6
		L135.1,124.6L135.1,124.6z"/>
	<path class="st2" d="M118.5,88.9c-2.9,0-5.5-1.8-6.5-4.6c-1.2-3.6,0.6-7.5,4.3-8.8l43.3-15c3.6-1.2,7.5,0.6,8.8,4.3
		c1.2,3.6-0.6,7.5-4.3,8.8l-43.3,15C120,88.8,119.3,88.9,118.5,88.9L118.5,88.9L118.5,88.9z"/>
</g>
</svg>
