<?xml version="1.0" encoding="utf-8"?>
<!-- Generator: Adobe Illustrator 26.5.0, SVG Export Plug-In . SVG Version: 6.00 Build 0)  -->
<svg version="1.1" id="Layer_1" xmlns="http://www.w3.org/2000/svg" xmlns:xlink="http://www.w3.org/1999/xlink" x="0px" y="0px"
	 viewBox="0 0 1335.2 472.9" style="enable-background:new 0 0 1335.2 472.9;" xml:space="preserve">
<style type="text/css">
	.st0{fill:#10274A;}
	.st1{fill:#2B5087;}
	.st2{fill:#2B5087;stroke:#0074FF;stroke-miterlimit:10;}
	.st3{fill:#FDE800;}
</style>
<g>
	<g>
		<path class="st0" d="M470.2,140.4c0-38.9,31.5-70.9,70.7-70.9c18.8,0,36.8,7.8,49.9,21.4c4.5,4.7,4.4,12.2-0.3,16.8
			c-4.7,4.5-12.2,4.4-16.8-0.3c-8.7-9.1-20.3-14.1-32.7-14.1c-25.5,0-46,21.2-46,47.2s20.4,47.2,46,47.2c12.4,0,24-5,32.7-14.1
			c4.5-4.7,12-4.9,16.8-0.3s4.9,12,0.3,16.8c-13,13.6-31.1,21.4-49.9,21.4C501.7,211.3,470.2,179.3,470.2,140.4L470.2,140.4
			L470.2,140.4z"/>
		<path class="st0" d="M686.2,133l-0.2,0.2c-3.6,2.4-8.1,2.7-12.1,0.9c-3.1-1.4-6.5-2.1-10-2.1c-14,0-25.3,11.8-25.3,26.3l0,0v40.9
			c0,6.7-5.4,12.2-12.2,12.2s-12.2-5.4-12.2-12.2v-76c0-6.7,5.4-12.2,12.2-12.2s12.2,5.5,12.2,12.2v1c7.8-9.3,19.5-15.2,32.6-15.2
			c4,0,7.9,0.6,11.5,1.6C692.9,113.5,695.1,127.1,686.2,133L686.2,133L686.2,133z"/>
		<path class="st0" d="M807.2,161.2c0,28.8-23.6,52.2-52.7,52.2s-52.7-23.3-52.7-52.2s23.6-52.2,52.7-52.2S807.2,132.4,807.2,161.2z
			 M782.9,161.2c0-16.2-12.7-29.4-28.4-29.4s-28.4,13.1-28.4,29.4s12.7,29.4,28.4,29.4S782.9,177.4,782.9,161.2z"/>
		<path class="st0" d="M826.5,202c-6.7-5.7-6.1-12.6-2.6-17.2c3.8-5.3,10.9-6.9,17.2-2.8c6.5,4.2,12.3,7.7,21.3,7.7s18.4-3,18.4-8.5
			c0-5.1-8.5-5.9-18.2-7.7c-23.2-4.5-39.2-12.8-39.4-34c0.1-20.7,18.5-30.8,39-30.8c15.2,0,30.2,5.5,36.9,12
			c6.1,5.9,5.9,12.2,2,17.2c-4.2,5.5-11.7,6.3-17.4,2.2c-6.3-4.5-11.3-7.7-19.9-7.7c-6.3,0-15.8,1.8-15.9,7.4
			c0.1,5.8,10.2,6.8,19.3,8.6c22.8,4.4,38.3,12.6,38.3,32.6c0,22.1-20.4,32.5-42.8,32.5C851,213.6,834.6,208.7,826.5,202L826.5,202
			L826.5,202z"/>
		<path class="st0" d="M928.8,202c-6.7-5.7-6.1-12.6-2.6-17.2c3.8-5.3,10.9-6.9,17.2-2.8c6.5,4.2,12.4,7.7,21.3,7.7s18.4-3,18.4-8.5
			c0-5.1-8.5-5.9-18.2-7.7c-23.2-4.5-39.2-12.8-39.4-34c0.1-20.7,18.5-30.8,39-30.8c15.2,0,30.2,5.5,36.9,12
			c6.1,5.9,5.9,12.2,2,17.2c-4.2,5.5-11.8,6.3-17.4,2.2c-6.3-4.5-11.3-7.7-19.9-7.7c-6.3,0-15.8,1.8-15.9,7.4
			c0.1,5.8,10.2,6.8,19.3,8.6c22.8,4.4,38.3,12.6,38.3,32.6c0,22.1-20.4,32.5-42.8,32.5C953.3,213.6,936.9,208.7,928.8,202
			L928.8,202L928.8,202z"/>
	</g>
	<g>
		<path class="st0" d="M524.5,406.3c-17.8,0-35.8-5.6-49.3-15.4c-5.4-3.9-6.7-11.5-2.7-17c3.9-5.4,11.5-6.7,17-2.7
			c9.4,6.8,22.5,11.8,35.1,11.8c17.2,0,32.7-5.5,32.7-18.4c0-11.8-14.2-13.4-31.6-16.9c-30.1-6-52.9-15.3-52.9-44.1
			c0-26.9,24.4-39.2,52.9-39.2c18.3,0,35.1,5.6,48.6,16.2c5.3,4.1,6.2,11.8,2.1,17.1s-11.8,6.2-17.1,2.1c-6.4-5-17.4-12-33.6-12
			c-15,0-28.7,4.8-28.7,15.9c0,13.5,14.4,15.2,33.4,19c28.8,5.7,51.2,14.5,51.2,41.9C581.6,393.3,554.9,406.4,524.5,406.3
			L524.5,406.3L524.5,406.3L524.5,406.3z"/>
		<path class="st0" d="M701,354.2c0,28.8-23.6,52.2-52.7,52.2s-52.7-23.3-52.7-52.2s23.7-52.2,52.8-52.2S701,325.4,701,354.2z
			 M676.7,354.2c0-16.2-12.7-29.4-28.4-29.4s-28.4,13.1-28.4,29.4s12.7,29.4,28.4,29.4S676.7,370.4,676.7,354.2z"/>
		<path class="st0" d="M719.3,392.1V274.7c0-6.7,5.5-12.2,12.2-12.2s12.2,5.4,12.2,12.2v117.5c0,6.7-5.4,12.2-12.2,12.2
			S719.3,398.9,719.3,392.1z"/>
		<path class="st0" d="M863.1,316.2v76c0,6.7-5.5,12.2-12.2,12.2s-12.2-5.4-12.2-12.2v-1c-7.8,9.3-19.5,15.2-32.6,15.2
			c-23.4,0-42.4-18.8-42.4-42v-48.2c0-6.7,5.5-12.2,12.2-12.2s12.2,5.4,12.2,12.2v40.9c0,14.5,11.3,26.3,25.3,26.3
			s25.3-11.8,25.3-26.3l0,0v-40.9c0-6.7,5.5-12.2,12.2-12.2S863.1,309.5,863.1,316.2L863.1,316.2L863.1,316.2z"/>
		<path class="st0" d="M949.3,403.1c-6.2,2.2-12.4,3.3-18.2,3.3c-8.4,0-16.2-2.3-22.5-6.7c-8.8-6.3-13.9-16.3-13.9-27.6v-43.5h-8
			c-6.3,0-11.4-5.1-11.4-11.4s5.1-11.4,11.4-11.4h8V287c0-6.7,5.4-12.2,12.2-12.2s12.2,5.4,12.2,12.2v18.8h22
			c6.3,0,11.4,5.1,11.4,11.4s-5.1,11.4-11.4,11.4h-22V372c0,3.4,1.2,6,3.7,7.8c4.1,2.9,11,3,18.6,0.4c6.3-2.2,13.3,1.1,15.5,7.4
			S955.6,400.8,949.3,403.1L949.3,403.1L949.3,403.1z"/>
		<path class="st0" d="M971.6,277.2c0-7.5,5.9-13.7,13.2-13.7s13.2,6.1,13.2,13.7s-5.9,13.7-13.2,13.7S971.6,284.8,971.6,277.2z
			 M972.6,392.2v-76c0-6.7,5.5-12.2,12.2-12.2s12.2,5.4,12.2,12.2v76c0,6.7-5.4,12.2-12.2,12.2S972.6,398.9,972.6,392.2z"/>
		<path class="st0" d="M1117.4,354.2c0,28.8-23.6,52.2-52.7,52.2s-52.7-23.3-52.7-52.2s23.6-52.2,52.7-52.2
			S1117.4,325.4,1117.4,354.2z M1093.1,354.2c0-16.2-12.7-29.4-28.4-29.4s-28.4,13.1-28.4,29.4s12.7,29.4,28.4,29.4
			S1093.1,370.4,1093.1,354.2z"/>
		<path class="st0" d="M1232.9,344v48.2c0,6.7-5.5,12.2-12.2,12.2s-12.2-5.4-12.2-12.2v-40.9c0-14.5-11.3-26.3-25.3-26.3
			s-25.3,11.8-25.3,26.3l0,0v40.9c0,6.7-5.5,12.2-12.2,12.2s-12.2-5.4-12.2-12.2v-76c0-6.7,5.5-12.2,12.2-12.2s12.2,5.4,12.2,12.2v1
			c7.8-9.3,19.5-15.2,32.6-15.2C1213.9,302,1232.9,320.8,1232.9,344L1232.9,344L1232.9,344z"/>
		<path class="st0" d="M1256.2,395c-6.7-5.7-6.1-12.6-2.6-17.2c3.8-5.3,10.9-6.9,17.2-2.8c6.5,4.2,12.3,7.7,21.3,7.7
			s18.4-3,18.4-8.5c0-5.1-8.5-5.9-18.2-7.7c-23.2-4.5-39.2-12.8-39.4-34c0.1-20.7,18.5-30.9,39-30.9c15.2,0,30.2,5.5,36.9,12
			c6.1,5.9,5.9,12.2,2,17.2c-4.2,5.5-11.8,6.3-17.4,2.2c-6.3-4.5-11.3-7.7-19.9-7.7c-6.3,0-15.8,1.8-15.9,7.4
			c0.1,5.8,10.2,6.8,19.3,8.6c22.8,4.4,38.3,12.6,38.3,32.6c0,22.1-20.4,32.5-42.8,32.5C1280.7,406.6,1264.3,401.7,1256.2,395
			L1256.2,395L1256.2,395z"/>
	</g>
</g>
<path class="st1" d="M205.8,455.1c0,0,28.5,6.7,57,0c0,0-5.9,17.8-28.4,17.8S205.8,455.1,205.8,455.1L205.8,455.1L205.8,455.1z"/>
<path class="st2" d="M301.7,346.5c-16,13.2-35.7,22.6-56.7,27.2c-5.2,1.1-10.6,2-16,2.5s-10.8,0.7-16.3,0.7
	c-5.4-0.1-10.9-0.5-16.4-1.1c-5.4-0.7-10.9-1.7-16.2-3c-10.7-2.6-21.2-6.5-31.2-11.5c-2.5-1.2-4.9-2.6-7.4-4l-3.6-2.1l-1.8-1.1
	l-1.8-1.2c-2.3-1.6-4.7-3-6.9-4.8c-2.3-1.7-4.6-3.3-6.7-5.2c-8.7-7.2-16.8-15.3-23.8-24.3s-13.1-18.9-18-29.3
	c-4.9-10.5-8.7-21.5-11.1-32.9s-3.6-23.1-3.4-34.9v-2.2l0.1-2.2l0.2-4.4c0.2-2.9,0.6-5.9,0.9-8.8l0.7-4.4c0.2-1.5,0.4-2.9,0.8-4.4
	c0.6-2.9,1.2-5.8,2-8.7c2.9-11.5,7.3-22.7,12.8-33.2c5.6-10.5,12.3-20.4,20.2-29.4s16.8-17.1,26.6-23.9
	c19.6-13.8,42.4-22.8,65.9-25.9c15.9-2.2,30.5,9,32.7,24.9c2,14.8-7.6,28.6-21.8,32.1l-1.5,0.4l-2.8,0.7c-0.9,0.2-1.8,0.4-2.7,0.7
	c-1.8,0.5-3.6,0.9-5.4,1.6l-2.7,0.8c-0.9,0.3-1.8,0.6-2.6,1c-0.9,0.3-1.8,0.6-2.6,1l-2.6,1.1c-1.7,0.7-3.4,1.5-5.1,2.3
	c-0.9,0.4-1.7,0.8-2.5,1.3l-2.5,1.3c-1.6,0.9-3.2,1.9-4.8,2.9c-0.8,0.5-1.5,1-2.3,1.5l-1.2,0.8c-0.4,0.2-0.8,0.5-1.1,0.8
	c-6,4.3-11.6,9.2-16.6,14.6c-5,5.4-9.6,11.5-13.3,18c-7.5,12.9-12.3,27.4-13.6,42.6c-1.4,15.2,0.4,30.9,5.7,45.7
	c5.1,14.9,13.7,28.7,25,40.3c0.7,0.7,1.4,1.5,2.1,2.2l2.2,2.1c1.4,1.5,3.1,2.7,4.6,4.1l1.2,1l1.2,1l2.4,1.9c1.7,1.2,3.3,2.5,5,3.6
	c6.8,4.7,14.2,8.5,21.9,11.6c7.8,3.1,15.9,5.4,24.3,6.9c4.2,0.7,8.5,1.2,12.8,1.4c4.3,0.2,8.6,0.2,13,0.1c4.3-0.2,8.7-0.7,13-1.3
	c4.3-0.7,8.6-1.6,13-2.7c4.3-1.2,8.5-2.6,12.7-4.1c4.2-1.6,8.3-3.5,12.4-5.5l0.2-0.1c4.3-2.1,9.4-0.4,11.5,3.9
	C305.8,339.7,304.7,344,301.7,346.5L301.7,346.5L301.7,346.5z"/>
<path class="st1" d="M328.7,368.4c4.5-4.5,5.3-19.3-0.7-15.9c-1,0.7-2.1,1.4-3.1,2C239.3,406.7,177.8,386,161.1,384
	c-4-0.5-8,0.4-11.2,2.7c-4.7,3.4-7.3,9.4,10.6,17.8c29.4,13.8,58.8,27.6,95.6,23l1.9-0.2c4.1-0.5,7.5,0.6,7.9,2.7
	c0.3,1.6-1.3,3.4-4,4.5c-4.7,1.3-15.3,2.5-34.4,1.3c-45.9-3.7-61.6,0.9-52.4,4.6s43.2,12.9,97.4,6.4c37.6-4.5,39.9-17.8,37.7-25.5
	v-0.1c-1-3.3-4.1-5.6-7.6-5.6h-2.3c-11.7,0-35.5-0.4-55-2.4c-21.1-3-22.1-7.7-20.4-10.5c0.9-1.4,2.4-2.3,4.1-2.5
	c3.5-0.4,11.7-1.5,16.3-2.2l0,0c4.8-0.8,9.5-1.7,13.4-2.7C273.1,391.6,311.4,382.9,328.7,368.4L328.7,368.4L328.7,368.4z"/>
<path class="st1" d="M67.4,129.6c-3.1,0-6.3-0.9-9.2-2.7l-18.5-11.7c-8-5.1-10.3-15.7-5.3-23.7c5.1-8,15.7-10.3,23.7-5.3l18.5,11.7
	c8,5.1,10.3,15.7,5.3,23.7C78.7,126.8,73.1,129.6,67.4,129.6L67.4,129.6L67.4,129.6z"/>
<path class="st1" d="M262.8,68.8c-1,0-2-0.1-3-0.3c-9.3-1.7-15.5-10.6-13.8-19.9l6.2-34.5c1.7-9.3,10.6-15.5,19.9-13.8
	s15.5,10.6,13.8,19.9l-6.2,34.5C278.2,63,271,68.8,262.8,68.8L262.8,68.8L262.8,68.8z"/>
<path class="st1" d="M17.2,317.5C10.1,317.5,3.5,313,1,306c-3.1-8.9,1.6-18.7,10.6-21.8l25.5-8.8c8.9-3.1,18.7,1.6,21.8,10.6
	c3.1,8.9-1.6,18.7-10.6,21.8l-25.5,8.8C21,317.2,19.1,317.6,17.2,317.5L17.2,317.5L17.2,317.5z"/>
<g>
	<path class="st3" d="M336.1,310.2c-2.9,0-5.9-0.7-8.6-2.3c-8.2-4.7-11-15.2-6.3-23.4c31-53.6,11.7-122.9-42.9-154.4
		c-8.2-4.7-11-15.2-6.3-23.4s15.2-11,23.4-6.3c71,41,95.8,131.3,55.4,201.3C347.8,307.1,342,310.2,336.1,310.2L336.1,310.2
		L336.1,310.2z"/>
	<path class="st3" d="M295,221.3c-7.1,0-13.7-4.4-16.2-11.5c-3.1-8.9,1.6-18.7,10.6-21.8l107.8-37.4c8.9-3.1,18.7,1.6,21.8,10.6
		s-1.6,18.7-10.6,21.8l-107.8,37.4C298.7,221,296.8,221.3,295,221.3L295,221.3L295,221.3z"/>
</g>
</svg>
