<?xml version="1.0" encoding="utf-8"?>
<!-- Generator: Adobe Illustrator 26.5.0, SVG Export Plug-In . SVG Version: 6.00 Build 0)  -->
<svg version="1.1" id="Layer_1" xmlns="http://www.w3.org/2000/svg" xmlns:xlink="http://www.w3.org/1999/xlink" x="0px" y="0px"
	 viewBox="0 0 798 512" style="enable-background:new 0 0 798 512;" xml:space="preserve">
<style type="text/css">
	.st0{fill:#2B5087;}
	.st1{fill:none;stroke:#2B5087;stroke-width:40;stroke-linecap:round;stroke-miterlimit:10;}
</style>
<path class="st0" d="M757.9,368.2l-0.1-225.3c0-12.7-10.3-23-23-23H381.4c-12.7,0-23,10.3-23,23v225.3c0,3.5,0.9,6.9,2.3,9.9
	l-0.1,0.1l0.2,0.2c2.2,4.5,5.9,8.2,10.5,10.5l0.2,0.2l0.1-0.1c3,1.4,6.3,2.3,9.9,2.3h353.3c3.5,0,6.9-0.9,9.9-2.3l0.1,0.1l0.2-0.2
	c4.5-2.2,8.2-5.9,10.5-10.5l0.2-0.2l-0.1-0.1C757,375.1,757.9,371.8,757.9,368.2z M696.9,147L589.7,254.3
	c-17.4,17.4-45.8,17.4-63.3,0L419.2,147H696.9z M391.2,166.5c0-0.8,0.2-1.5,0.4-2.2l88.1,88.1l-88.5,88.5V166.5z M410.3,363.4l96-96
	l10.1,10.1c11.5,11.5,26.5,17.2,41.6,17.2c15.1,0,30.2-5.7,41.6-17.2l10.1-10.1l96,96H410.3z M725,340.9l-88.5-88.5l88.1-88.1
	c0.2,0.7,0.4,1.4,0.4,2.2V340.9z"/>
<line class="st1" x1="307" y1="151" x2="134" y2="151"/>
<line class="st1" x1="202" y1="367" x2="29" y2="367"/>
<line class="st1" x1="312" y1="367" x2="268" y2="367"/>
<line class="st1" x1="307" y1="256" x2="163" y2="256"/>
<line class="st1" x1="78" y1="256" x2="78" y2="256"/>
</svg>
